<?xml version="1.0" encoding="UTF-8" standalone="no"?>
<!-- Uploaded to: SVG Repo, www.svgrepo.com, Generator: SVG Repo Mixer Tools -->

<svg
   width="800px"
   height="800px"
   viewBox="0 0 24 24"
   fill="none"
   version="1.1"
   id="svg1"
   sodipodi:docname="breadcrumbtriangle.svg"
   inkscape:version="1.3.2 (091e20e, 2023-11-25, custom)"
   xmlns:inkscape="http://www.inkscape.org/namespaces/inkscape"
   xmlns:sodipodi="http://sodipodi.sourceforge.net/DTD/sodipodi-0.dtd"
   xmlns="http://www.w3.org/2000/svg"
   xmlns:svg="http://www.w3.org/2000/svg">
  <defs
     id="defs1" />
  <sodipodi:namedview
     id="namedview1"
     pagecolor="#ffffff"
     bordercolor="#000000"
     borderopacity="0.25"
     inkscape:showpageshadow="2"
     inkscape:pageopacity="0.0"
     inkscape:pagecheckerboard="0"
     inkscape:deskcolor="#d1d1d1"
     inkscape:zoom="1.02625"
     inkscape:cx="400"
     inkscape:cy="477.95371"
     inkscape:window-width="1920"
     inkscape:window-height="1017"
     inkscape:window-x="-8"
     inkscape:window-y="-8"
     inkscape:window-maximized="1"
     inkscape:current-layer="svg1" />
  <path
     d="M10 7L15 12L10 17"
     stroke="#000000"
     stroke-width="1.5"
     stroke-linecap="round"
     stroke-linejoin="round"
     id="path1" />
  <path
     style="fill:#0000ff;stroke:#0000ff;stroke-width:0.974421"
     d="m 324.52548,589.44958 c -12.41561,-5.38586 -18.272,-18.07447 -14.18298,-30.72924 1.61206,-4.98902 5.49003,-9.04919 78.30554,-81.98465 L 465.25753,400 388.64804,323.26431 c -72.81551,-72.93546 -76.69348,-76.99563 -78.30554,-81.98465 -6.52316,-20.18802 13.57699,-38.81271 32.65385,-30.25686 6.59048,2.95579 175.57832,171.802 178.8957,178.74577 2.95527,6.18583 3.08468,13.84982 0.33729,19.97564 -2.95579,6.59049 -171.802,175.57832 -178.74578,178.89571 -5.70345,2.72482 -13.75094,3.0685 -18.95808,0.80966 z"
     id="path16"
     transform="scale(0.03)" />
  <path
     style="fill:#0000ff;stroke:#0000ff;stroke-width:0.974421"
     d="m 323.99513,588.65886 c -11.93129,-5.21223 -17.556,-20.06171 -12.0123,-31.71297 1.58725,-3.33593 21.13686,-23.52427 78.14426,-80.69741 L 466.15453,400 390.11825,323.75152 c -84.43208,-84.66771 -81.48304,-81.27198 -80.17983,-92.32454 1.73642,-14.72676 15.13571,-24.74625 28.56987,-21.36349 5.59052,1.40771 9.26148,4.81161 73.18477,67.86062 57.56634,56.779 106.32495,106.89433 109.65165,112.70272 2.25572,3.93844 2.43541,5.01192 1.87056,11.17436 -0.49589,5.41017 -1.17221,7.48665 -3.27653,10.05985 -1.45841,1.78337 -22.40312,23.5009 -46.54381,48.26117 -49.12054,50.38126 -124.22177,124.07658 -130.02102,127.58699 -2.9708,1.7983 -5.15449,2.28584 -10.12178,2.25984 -3.48356,-0.0182 -7.64921,-0.60781 -9.257,-1.31018 z"
     id="path17"
     transform="scale(0.03)" />
  <path
     style="fill:#0000ff;stroke:#0000ff;stroke-width:0.974421"
     d="m 327.77561,590.06989 c -6.74446,-1.07906 -12.85095,-6.12568 -16.06138,-13.2737 -2.46304,-5.48395 -2.60873,-14.60034 -0.31119,-19.47226 1.90302,-4.03535 26.95196,-29.83349 108.52387,-111.76979 l 45.35167,-45.55426 -46.81582,-47.01577 C 329.96261,264.10597 314.3498,247.92097 311.50692,242.10846 c -3.14964,-6.43973 -2.93192,-12.09813 0.74467,-19.35354 5.58958,-11.03051 18.19912,-16.60227 28.09639,-12.41492 5.56597,2.35486 19.3705,15.43303 81.9819,77.66825 66.22613,65.82823 96.20732,96.92047 99.77513,103.47265 1.93646,3.55624 2.15896,4.95155 1.59151,9.98073 -0.36282,3.21559 -1.22795,6.95658 -1.92251,8.31331 -1.82551,3.56588 -62.48551,65.75192 -111.65487,114.46379 -45.64337,45.21871 -64.83848,63.38902 -68.32233,64.67472 -3.62303,1.33706 -9.73922,1.84151 -14.0212,1.15644 z"
     id="path18"
     transform="scale(0.03)" />
  <path
     style="fill:#0000ff;stroke:#0000ff;stroke-width:0.974421"
     d="m 322.72329,588.46263 c -6.20504,-3.09211 -10.50104,-8.10316 -12.39805,-14.46166 -2.74166,-9.18963 -1.40282,-14.69836 5.64234,-23.21591 2.76753,-3.34591 37.46676,-38.64795 77.10941,-78.44897 l 72.07753,-72.3655 -70.63851,-70.87445 c -71.56473,-71.80378 -81.77486,-82.54863 -84.39164,-88.81149 -4.23802,-10.14301 3.11972,-24.97321 14.81426,-29.8595 3.83472,-1.60225 11.87705,-1.86103 15.46321,-0.49757 4.80389,1.82643 17.9032,14.30239 82.37816,78.45802 70.40876,70.06005 96.60746,97.15536 99.58648,102.99475 2.05857,4.03512 2.39893,10.09484 0.87514,15.58083 -1.34275,4.83418 -30.44211,35.0685 -106.78902,110.95409 -63.52922,63.14535 -70.94965,70.14442 -76.28132,71.94977 -5.54498,1.87758 -11.88921,1.36764 -17.44799,-1.40241 z"
     id="path19"
     transform="scale(0.03)" />
  <path
     style="fill:#0000ff;stroke:#0000ff;stroke-width:0.974421"
     d="m 323.50792,588.95892 c -8.41624,-3.80974 -13.38707,-10.70406 -14.3342,-19.88091 -0.66436,-6.43701 0.92367,-11.4361 5.42196,-17.06827 1.92617,-2.41169 36.29066,-37.3539 76.36553,-77.64933 40.07486,-40.29545 72.86339,-73.81492 72.86339,-74.48772 0,-0.67281 -31.04615,-32.38103 -68.99147,-70.46272 -75.72208,-75.99425 -81.08299,-81.56275 -83.96986,-87.22148 -5.24495,-10.28095 0.44471,-24.96263 11.88277,-30.66246 6.42723,-3.20282 15.25622,-3.47093 19.95488,-0.60598 5.34586,3.25957 32.76143,29.76323 92.86546,89.77651 61.91791,61.82441 85.25912,86.19986 87.3622,91.23316 1.68323,4.02847 1.68092,12.12072 -0.005,16.14056 -1.95288,4.65744 -28.85769,32.69314 -91.24891,95.08436 -61.37015,61.37014 -85.52587,84.50507 -90.32932,86.51208 -4.62162,1.93104 -12.71799,1.60977 -17.83784,-0.7078 z"
     id="path20"
     transform="scale(0.03)" />
  <path
     style="fill:#0000ff;stroke:#0000ff;stroke-width:0.974421"
     d="m 324.93081,589.99897 c -4.64987,-1.42974 -11.21072,-7.6852 -13.72623,-13.08729 -2.99732,-6.43681 -3.07528,-13.94216 -0.20637,-19.86853 1.51715,-3.13401 23.12557,-25.60334 77.2229,-80.29955 41.31395,-41.77132 75.11628,-76.33109 75.11628,-76.79949 0,-0.46841 -33.32521,-34.53955 -74.05603,-75.71365 -40.73081,-41.17411 -75.35367,-76.75323 -76.93968,-79.06471 -7.47527,-10.89465 -2.47866,-27.29568 10.28635,-33.7642 7.17363,-3.63516 15.60847,-3.38334 21.69417,0.64766 6.20048,4.10703 81.07899,77.38437 127.41111,124.6866 53.33435,54.45109 52.50542,53.45231 52.50542,63.26419 0,9.7904 1.80524,7.64815 -57.41556,68.13458 -43.57834,44.50968 -115.59301,115.08606 -121.87008,119.43607 -3.4388,2.38308 -5.26625,2.91872 -10.60741,3.10909 -3.54908,0.12649 -7.78577,-0.17986 -9.41487,-0.68077 z"
     id="path21"
     transform="scale(0.03)" />
  <path
     style="fill:#0000ff;stroke:#0000ff;stroke-width:0.974421"
     d="m 322.98299,589.15618 c -4.95761,-2.25196 -11.44647,-9.54334 -12.94546,-14.54652 -1.78524,-5.95862 -1.4063,-12.67698 0.9948,-17.63699 2.1966,-4.53757 14.2898,-17.03762 108.20258,-111.84284 23.98841,-24.21635 43.61527,-44.61359 43.61527,-45.32721 0,-0.71362 -4.86404,-6.11339 -10.80897,-11.9995 -5.94495,-5.88611 -39.6391,-39.90833 -74.87589,-75.60492 -45.6929,-46.28915 -64.67015,-66.14905 -66.17032,-69.24797 -5.66982,-11.71229 0.75695,-27.42247 13.37478,-32.69454 5.54684,-2.31762 13.97744,-1.86785 18.88375,1.00744 10.80838,6.33413 170.42659,165.71877 178.22621,177.9654 2.31631,3.63699 2.75899,5.36906 2.75899,10.79519 0,5.55961 -0.41114,7.08384 -2.94112,10.9034 -8.3061,12.53992 -165.68359,169.94796 -177.27401,177.30842 -3.63337,2.30736 -5.36211,2.74761 -10.71864,2.72966 -4.07431,-0.0136 -7.81138,-0.66861 -10.32197,-1.80902 z"
     id="path22"
     transform="scale(0.03)" />
</svg>
