<?xml version="1.0" encoding="UTF-8" standalone="no"?>
<svg
   version="1.0"
   width="800.000000pt"
   height="611.000000pt"
   viewBox="0 0 800.000000 611.000000"
   preserveAspectRatio="xMidYMid meet"
   id="svg2"
   sodipodi:docname="logoNEW.svg"
   inkscape:version="1.3.2 (091e20e, 2023-11-25, custom)"
   xmlns:inkscape="http://www.inkscape.org/namespaces/inkscape"
   xmlns:sodipodi="http://sodipodi.sourceforge.net/DTD/sodipodi-0.dtd"
   xmlns="http://www.w3.org/2000/svg"
   xmlns:svg="http://www.w3.org/2000/svg">
  <defs
     id="defs2" />
  <sodipodi:namedview
     id="namedview2"
     pagecolor="#ffffff"
     bordercolor="#000000"
     borderopacity="0.25"
     inkscape:showpageshadow="2"
     inkscape:pageopacity="0.0"
     inkscape:pagecheckerboard="0"
     inkscape:deskcolor="#d1d1d1"
     inkscape:document-units="pt"
     showgrid="false"
     inkscape:zoom="0.77025368"
     inkscape:cx="857.5097"
     inkscape:cy="444.6587"
     inkscape:window-width="1920"
     inkscape:window-height="1017"
     inkscape:window-x="-8"
     inkscape:window-y="-8"
     inkscape:window-maximized="1"
     inkscape:current-layer="svg2" />
  <g
     transform="matrix(0.1,0,0,-0.1,4.1310814,652.31081)"
     fill="#000000"
     stroke="none"
     id="g2">
    <path
       id="path1"
       d="m 5551.377,5603.8232 c 0,-0.3126 -0.026,-0.3596 -0.029,-0.6738 0.5049,0.1336 1.0027,0.2769 1.5087,0.4102 -0.5026,0.036 -0.9817,0.1991 -1.4794,0.2636 z m 151.6113,-368.5107 c -0.2123,-1.2314 -0.342,-2.4393 -0.5713,-3.6768 0.4446,0.069 0.9858,0.2311 1.4795,0.3223 -0.3849,1.4345 -0.5233,1.9199 -0.9082,3.3545 z m -18.1055,-416.9531 c -0.7319,-0.4191 -1.4801,-0.8114 -2.2119,-1.2305 0.1237,-0.568 0.215,-0.9911 0.3369,-1.5527 0.6482,0.9074 1.2796,1.8315 1.875,2.7832 z M 266.00098,4770.0049 c -195.977226,0 -215.999552,-2.0108 -236.997074,-18.999 L 4.9951172,4732.0068 V 3635 2537.9932 l 24.0087888,-18.9991 c 20.997522,-16.9882 42.02795,-18.999 258.002934,-18.999 h 233.99414 l 181.99218,163.0078 C 914.96838,2852.9793 1057.001,2979.0118 1121.001,3035 c 25,22 164.0167,146.0177 310.0049,276.0059 666.9174,594.9292 755.0127,671.9873 776.0009,681.9873 19,8 29.003,6.0097 50.9912,-9.9903 l 26.9971,-20.0097 5.0098,-710.9912 c 5,-679.9292 5.9941,-711.001 23.9941,-731.001 18,-20 28.0266,-21.0059 228.003,-21.0059 213.9646,0 239.0029,4.0049 258.0029,40.0049 7,13 9.9902,247.0492 9.9902,712.002 0,769.9056 -2.9892,738.0029 63.999,738.0029 26,0 50.0118,-16.0196 132.0118,-88.0078 53.9882,-48 280.0109,-249.0246 501.9873,-446.001 l 402.0117,-356.9971 22.998,18.003 c 13,9.9882 238.0266,209.0216 500.9912,442.998 261.9764,233.9764 488.0059,429.0039 501.0059,434.0039 17,7 29.999,4.9863 48.999,-7.0019 l 25.0049,-17.0069 0.9961,-701.001 c 0,-740.9056 1,-745.9931 45,-762.9931 9,-3 643.0983,-6.0059 1409.0039,-6.0059 h 1392.9932 l 18.999,21.0059 c 17,19 19.0019,41.0158 22.0019,226.9922 2,112.9882 0.9971,220.0078 -3.0029,238.0078 -5,26.9882 -59.0197,79.0412 -330.9961,321.0058 -178.9764,158.9882 -327,297.9903 -330,309.9903 -3,12 -3,30.0127 0,41.0009 6,17 365.0266,346.0315 588.003,538.0079 47.9882,40.9882 69.0039,65.9931 74.0039,87.9931 3,17 3.9921,124.0089 1.9921,236.9971 -3,186.9764 -5.0019,209.0029 -22.0019,228.0029 l -18.999,21.0059 -1013.9942,-2.0069 -966.6357,-2.871 c -21.1736,-10.395 -42.4601,-20.55 -62.8565,-32.417 -1.93,-1.1351 -3.7185,-2.5007 -5.6543,-3.6329 -0.7546,-2.6047 -0.754,-2.4101 -2.8271,-9.8876 -6.7665,-24.4326 -12.6451,-49.0512 -18.3838,-73.7403 -1.5755,-7.22 -2.6943,-14.5311 -4.1894,-21.7676 0.6052,-27.0539 1.0063,-54.138 1.2597,-81.1962 0.6737,-44.4245 -1.0071,-88.836 -2.4609,-133.2276 -0.034,-0.9813 -0.055,-1.963 -0.088,-2.9443 3.1298,-12.6589 6.057,-20.6925 8.833,-33.3106 12,-50.9882 27.0029,-96.0049 33.0029,-100.0049 7,-3.9882 34.0079,-9.9931 60.9961,-12.9931 l 49.9951,-5.0098 0.2491,-0.9814 c 16.4344,0.3835 32.8799,0.5238 49.3213,0.6592 13.7931,0.1164 27.5838,-0.5058 41.3671,-0.9522 0.4145,0.047 0.8049,0.109 1.2305,0.1465 6.0209,0.53 12.0656,0.7305 18.1055,0.8935 4.7363,0.083 9.4722,0.2289 14.209,0.2198 1.5789,0 3.1674,-0.028 4.7461,-0.073 3.4873,-0.197 1.8026,-0.086 5.0097,-0.3076 2.5884,-0.179 4.9559,-0.5526 7.1485,-1.0547 13.3323,3.6752 117.2273,6.46 249.624,6.46 68.0846,0 91.0665,-1.5345 126.2549,-2.6367 4.922,1.3336 10.0914,1.7034 15.1611,1.9922 6.5607,0.373 15.0451,0.5813 21.5332,0.7763 31.4247,0.722 62.8605,0.8278 94.292,0.9668 13.0605,0.044 26.1236,0.1019 39.1846,0.088 13.061,-0.015 26.1254,-0.094 39.1845,-0.3516 15.2381,-0.3003 24.5536,-0.7001 39.7266,-1.2451 8.4402,-0.4 16.883,-0.814 25.3271,-1.1572 9.7414,0.052 19.4827,0.1007 29.2237,0.1465 17.0406,0.08 34.0832,0.1115 51.123,-0.044 16.2766,-0.4719 32.6639,-0.4805 48.8086,-2.9004 3.0082,-0.4509 5.9976,-1.0443 8.9942,-1.5673 19.9258,-3.7406 38.9833,-10.7797 57.9052,-17.8711 9.7754,-4.1098 20.2601,-7.9518 27.8467,-15.7324 5.3585,-5.4963 5.9388,-7.7447 9.4629,-14.4141 4.5078,-10.8483 5.7089,-22.3425 4.0723,-33.9404 -0.8177,-5.7951 -2.1079,-9.9917 -3.6035,-15.5713 -1.8194,-6.1147 -4.2408,-12.0517 -6.9727,-17.8272 -0.089,-0.29 -0.1506,-0.5694 -0.249,-0.8642 -0.7324,-2.1943 -0.3279,-0.9752 -1.1719,-3.7061 -1.563,-4.4457 -3.5674,-8.6898 -5.6689,-12.9053 -3.1733,-6.4374 -6.8232,-12.6304 -10.8692,-18.5595 -3.157,-4.4769 -4.1828,-6.0395 -7.6904,-10.503 -7.436,-9.4625 -15.6332,-18.2923 -24.0674,-26.8652 -7.8042,-7.6258 -15.6434,-15.4445 -25.0195,-21.0938 -2.6156,-3.1422 -5.1905,-6.3186 -7.8369,-9.4335 -16.6836,-19.6811 -33.4683,-39.2842 -51.3282,-57.92 -0.2399,-0.2594 -10.2878,-11.113 -11.0888,-11.997 -5.5702,-6.1472 -10.8093,-12.5985 -16.8604,-18.2959 -7.8246,-7.6208 -15.8532,-15.1658 -25.2685,-20.8155 -8.7705,-5.3028 -17.5058,-10.7206 -26.7188,-15.2343 -12.2074,-5.6519 -24.976,-10.4628 -38.335,-12.4805 -0.2826,-0.034 -0.5668,-0.069 -0.8496,-0.1025 -1.5278,-0.2563 -4.2831,-0.4469 -6.0205,-0.6885 -3.0625,-0.3341 -6.1273,-0.6045 -9.1992,-0.8057 -37.1312,-4.0969 -108.7364,-6.0929 -248.291,-7.4414 l -263.7598,-0.9814 c -3.3558,-2.7125 -6.624,-5.5299 -9.9023,-8.335 0.1659,-1.5934 0.3443,-3.2007 0.5127,-4.79 5.5637,-82.3792 8.2659,-164.9436 9.7998,-247.4854 1.4104,-52.6207 0.2028,-105.2266 -1.4795,-157.8223 -0.9724,-23.8668 -2.4579,-47.7145 -3.6621,-71.5722 15.971,-16.8291 41.141,-18.0176 278.4961,-18.0176 h 262.998 l 48.003,-41.9971 c 150.9764,-129.9764 181.0039,-163.0137 209.0039,-232.0019 19.9882,-52 24,-70.0108 15,-78.999 -9,-9 -188.0659,-13 -707.0069,-15 l -694.9951,-2.0069 -24.0088,24.0088 -24.9902,24.9902 v 836.001 c 0,821.9056 -0.01,835 -20.0098,855 -19,19 -33.0207,20.0098 -266.9971,20.0098 H 4995 l -57.9932,-56.001 c -30.8183,-29.6434 -45.392,-41.7932 -55.4297,-44.6338 -2.8115,-3.4413 -5.7038,-6.8361 -8.789,-10.0488 -4.3647,-4.914 -9.5375,-8.7215 -15.044,-12.2461 -0.6721,-0.4032 -1.3492,-0.7981 -2.0214,-1.2012 -0.8688,-3.2216 -1.833,-6.4122 -4.7168,-9.873 -7.313,-8.2271 -17.631,-14.1403 -24.7559,-15.2051 -3.0953,-3.3574 -6.0404,-6.8637 -9.3164,-10.0488 -4.3978,-4.0297 -8.8128,-8.0409 -13.418,-11.836 -5.9908,-5.0347 -11.937,-10.1279 -17.5781,-15.5566 -0.3505,-0.3282 -0.7044,-0.6529 -1.0547,-0.9815 -1.1682,-2.3612 -2.883,-3.7418 -4.834,-4.5117 -4.6162,-4.3156 -9.274,-8.5874 -14.1211,-12.6416 0.3962,-2.2349 -0.7005,-3.22 -3.4131,-2.8564 -5.108,-4.194 -10.1239,-8.5276 -15.4687,-12.4365 -0.7551,-0.5523 -1.4941,-1.0214 -2.2266,-1.4356 -0.3704,-0.3016 -0.6965,-0.6533 -1.0693,-0.9521 -9.3005,-8.9108 -18.5115,-17.915 -28.125,-26.4991 -2.2358,-2.0075 -4.5005,-3.9742 -6.7529,-5.9619 C 4677.5124,4479.3479 4626.0755,4430 4616.001,4430 c -3,0 -24.0069,-18.001 -47.0069,-41.001 -13.0318,-13.0434 -25.8174,-22.2855 -36.5918,-28.3886 -13.2834,-14.8304 -26.3673,-29.8432 -39.2431,-45.044 -4.9256,-5.6853 -6.1333,-7.2525 -11.2793,-12.5244 -6.8793,-7.0477 -14.2583,-13.6077 -21.211,-20.5811 -10.4187,-9.7679 -20.9831,-19.4124 -32.0361,-28.4765 -12.104,-9.9777 -24.7237,-19.2952 -37.2217,-28.7696 -8.6175,-6.5395 -17.3429,-12.9548 -25.8984,-19.5849 C 4352.187,4193.2652 4333.7306,4175 4331.9971,4175 c -2.557,0 -16.6701,-14.1523 -28.125,-24.9316 -4.1995,-4.1477 -8.4289,-8.2616 -12.9346,-12.085 -7.5876,-6.7321 -15.2787,-13.3363 -23.2617,-19.5996 -6.4989,-5.1137 -12.8818,-10.376 -19.4092,-15.4541 -8.2449,-6.5738 -16.3333,-13.3762 -23.8623,-20.7568 -5.245,-5.581 -10.0714,-11.5412 -15.4248,-17.0215 -8.5084,-8.9791 -17.3449,-17.6505 -26.3086,-26.1621 -12.6576,-12.111 -25.3693,-24.1924 -36.9727,-37.3389 -10.0865,-11.2336 -20.4243,-22.2548 -30.7617,-33.2666 -6.0888,-6.4392 -11.9025,-13.1474 -18.457,-19.1309 -5.1736,-5.1557 -10.2712,-10.3755 -15.7031,-15.2636 -4.8083,-4.4844 -9.7194,-8.8539 -14.253,-13.6231 -5.2624,-5.0153 -10.2218,-10.3235 -15.249,-15.5713 -7.2959,-7.6359 -14.4982,-15.3746 -22.1924,-22.6172 -7.7068,-7.2671 -15.6311,-14.2978 -23.7451,-21.1084 -8.0543,-6.1095 -16.2405,-12.0349 -24.7558,-17.4756 -11.4309,-7.4872 -23.0105,-14.8265 -34.8047,-21.7382 -7.7204,-3.9657 -15.4714,-8.2074 -23.877,-10.5176 -3.7274,-1.0245 -6.4312,-0.4318 -8.1738,0.835 -25.4835,-1.3921 -48.3675,15.2796 -149.7217,104.8242 -308.9646,276.9646 -749.0137,669.0176 -847.0019,756.0058 l -108.9991,97.002 H 2543.9941 2280 l -108.0029,-96.0059 c -59,-52.9882 -249.0158,-223.004 -421.9922,-376.9922 -172.9764,-154.9764 -331.0098,-295.0078 -350.0098,-313.0078 -19,-17 -84.002,-75.0059 -144.9902,-128.9941 -60,-54 -130.0098,-116.0108 -155.0098,-138.999 -25,-23 -99.001,-89.0128 -163.98924,-146.001 -65.99174,-58 -159.01371,-143.0206 -208.00781,-189.0088 -109.98702,-104.9882 -123.00647,-113.9922 -153.00293,-106.9922 -57.99292,15 -54.99024,-25.9154 -54.99024,744.9902 0,697.9174 -0.01,708.0206 -20.00976,729.0088 -19.99764,21 -28.01892,22.002 -233.99414,22.002 z m -195.996097,-60 191.997067,-2.0069 192.99317,-3.0029 5.00976,-712.0019 L 465,3279.9951 495.99609,3248.999 c 39.99528,-39.9882 109.01547,-50.9941 151.01075,-23.9941 15.99764,10 127.00146,107.0108 246.9873,213.999 120.98816,107.9882 310.02256,277.0079 421.01076,375.9961 503.941,449.9527 748.0128,669.0089 868.9892,776.9971 l 131.001,116.997 H 2550 2785.0049 l 525,-469.9951 c 288.9646,-258.9646 534.998,-474 547.998,-480 31,-12 88.9981,-11.9931 112.9981,2.0069 16,8 434.0413,378.0295 773.9941,683.9941 44,39 129.0206,115.0147 189.0088,168.0029 l 108.0029,97.002 h 213.9991 213.999 V 3875.9961 3042.998 l 22.998,-33.999 c 12,-18 33.9922,-38.9961 46.9922,-45.9961 36,-18 1435.0235,-18 1467.0117,0 62,35 86.9834,124.0118 49.9952,180 -18,28 -261.0177,249.9942 -306.0059,278.9942 -23,16 -55.0168,18.0029 -282.9932,18.0029 H 6210 v 195 195 h 258.0029 c 224.9764,0 260.9971,2.0186 281.9971,17.0068 43,29 300.0049,263.9932 310.0049,282.9932 16,31 10.9951,93.0098 -10.0049,127.998 -38,63 -33.0698,62.0069 -633.999,62.0069 h -543.999 l -7.002,92.9883 c -3,49.9882 -5.0029,137.0117 -3.0029,192.0117 l 3.0029,99.9902 982.998,3.0029 982.002,2.0069 v -213.999 -213.9991 l -32.0068,-27.0117 c -152.9882,-126.9882 -606.9961,-540.9912 -615.9961,-560.9912 -17,-37 -13.9942,-95.0059 6.0058,-126.0059 9,-14.9882 69.0089,-72.9941 131.9971,-128.9941 62.9882,-55.9882 137.9961,-123.0078 165.9961,-148.0078 27,-25 116.0186,-104.0128 197.0068,-176.001 L 7830,2986.001 V 2777.9932 2570 l -812.0068,-2.0068 c -446.9528,-1 -1059.0218,-1.9883 -1360.9864,-2.9883 -300.9646,-1 -553.0097,2.0019 -560.0097,7.0019 -9,6 -12.9922,167.0581 -16.9922,711.9873 l -5.0098,706.0108 -31.9922,30.9961 c -40.9882,40.9882 -112.0098,50.0058 -157.998,21.0058 -24,-14.9882 -539.0236,-469.0343 -750,-661.0107 C 3980.0167,3241.0079 3922,3189.9951 3915,3189.9951 c -9,0 -67.059,50.057 -540,470.0098 -219.9764,195.9764 -413.0059,365.9883 -428.9941,377.9883 -55,42.9882 -149.003,22.0136 -183.003,-40.9864 -17,-28.9882 -17.998,-87.0825 -22.998,-732.0117 l -5.0098,-699.9902 -187.0019,-3.0029 -187.9981,-2.0069 v 690 c 0,747.9174 0.998,728.0118 -54.9902,780 -21,20 -37.0108,25.0049 -78.999,25.0049 -62,0 -34.0423,19.9685 -362.0069,-270.9961 C 1727.0226,3662.0157 1400.9646,3371.9764 1140,3140 879.03068,2908.0236 624.99996,2681.9941 576.00586,2638.9941 l -89.00391,-78.999 -206.00097,2.0069 L 75,2565.0049 71.99707,3638.0029 Z M 4231.875,4108.2617 c -0.5596,-0.2495 0.387,-1.7516 0.5566,-2.6221 0.7135,0.5957 1.4359,1.1818 2.1534,1.7725 -0.8042,0.1712 -2.283,1.04 -2.71,0.8496 z m 1758.8086,-74.0185 c 0.012,-0.047 0.032,-0.1291 0.044,-0.1758 0.3461,0.057 0.7207,0.1181 1.0694,0.1758 z" />
    <path
       d="m 125,4638 c -3,-7 -4,-465 -3,-1018 l 3,-1005 172,-3 172,-2 158,141 c 1147,1029 1447,1296 1488,1325 91,66 192,49 262,-43 l 28,-36 5,-691 5,-691 137,-3 138,-3 2,694 3,693 25,37 c 29,43 108,87 155,87 56,0 117,-42 305,-211 535,-481 726,-649 736,-647 10,3 151,127 614,544 340,305 352,314 430,314 39,-1 103,-34 133,-69 49,-59 50,-69 46,-776 l -4,-660 1323,-3 1322,-2 v 179 c 0,142 -3,182 -14,188 -16,9 -474,413 -559,493 -90,84 -113,146 -83,225 20,51 71,101 419,410 l 237,210 v 167 168 h -930 -930 v -135 -135 l 483,-1 c 265,-1 506,-3 536,-5 95,-7 159,-54 181,-132 28,-102 6,-139 -180,-303 -83,-74 -163,-141 -178,-149 -21,-12 -77,-16 -265,-18 l -238,-4 3,-136 3,-137 246,-5 247,-5 43,-35 c 93,-73 285,-251 301,-277 53,-90 16,-212 -76,-254 -39,-18 -80,-19 -754,-19 -583,0 -718,2 -745,14 -39,16 -82,61 -96,99 -7,19 -11,185 -11,480 0,249 -3,611 -7,805 l -6,352 h -174 -173 l -518,-462 c -336,-300 -532,-468 -561,-481 -51,-22 -117,-18 -162,11 -15,9 -224,193 -465,407 -240,215 -472,420 -514,458 l -78,67 h -212 -212 l -78,-67 c -42,-38 -198,-176 -345,-308 -148,-132 -312,-278 -365,-325 -53,-47 -262,-233 -465,-414 -202,-181 -384,-340 -404,-353 -31,-21 -45,-24 -102,-21 -54,3 -73,9 -103,31 -75,58 -71,12 -74,775 l -3,682 H 264 c -98,0 -136,-3 -139,-12 z"
       id="path2" />
  </g>
</svg>
